<svg xmlns="http://www.w3.org/2000/svg" width="1200" height="700" viewBox="0 0 1200 700">
<defs>
      <linearGradient id="g" x1="0" y1="0" x2="1" y2="1">
        <stop offset="0%" stop-color="#ffedd5"/><stop offset="100%" stop-color="#fde68a"/>
      </linearGradient>
      <filter id="shadow" x="-20%" y="-20%" width="140%" height="140%">
        <feDropShadow dx="0" dy="6" stdDeviation="10" flood-color="#0f172a" flood-opacity="0.12"/>
      </filter>
      <marker id="arrow" markerWidth="10" markerHeight="10" refX="8" refY="5" orient="auto-start-reverse">
        <path d="M0,0 L10,5 L0,10 z" fill="#2563eb"/>
      </marker>
    </defs>
    <rect width="100%" height="100%" fill="url(#g)"/>
    <rect x="0" y="0" width="100%" height="100%" fill="#ffffff" opacity="0.55"/>
    <rect x="40" y="40" width="1120" height="620" rx="30" fill="#ffffff" opacity="0.65"/>
    
    <g>
      <text x="80" y="110" font-family="Arial, Helvetica, sans-serif" font-size="28" font-weight="700" fill="#7c3aed">ABDOMINALES</text>
      <text x="80" y="155" font-family="Arial, Helvetica, sans-serif" font-size="50" font-weight="900" fill="#0f172a">Crunch en polea alta</text>
      <text x="80" y="192" font-family="Arial, Helvetica, sans-serif" font-size="20" fill="#475569">Posición inicial y final del movimiento</text>
    </g>
    <rect x="80" y="220" width="470" height="360" rx="28" fill="#ffffff" filter="url(#shadow)"/><rect x="650" y="220" width="470" height="360" rx="28" fill="#ffffff" filter="url(#shadow)"/><text x="280" y="255" font-family="Arial" font-size="18" font-weight="700" fill="#64748b">Inicio</text><text x="845" y="255" font-family="Arial" font-size="18" font-weight="700" fill="#64748b">Final</text><line x1="155" y1="520" x2="550" y2="520" stroke="#94a3b8" stroke-width="4" opacity="0.6"/>
    <g stroke="#475569" stroke-width="10" fill="none" stroke-linecap="round" stroke-linejoin="round">
      <line x1="420" y1="490" x2="420" y2="235"/>
      <line x1="420" y1="235" x2="510" y2="235"/>
      <line x1="510" y1="235" x2="510" y2="490" opacity="0.35"/>
    </g>
    <rect x="435" y="255" width="18" height="150" rx="7" fill="#334155" opacity="0.7"/>
    <rect x="429" y="410" width="30" height="34" rx="8" fill="#334155"/>
    <circle cx="335" cy="300" r="18" fill="#f2b27e" stroke="#8a5a32" stroke-width="2"/><polygon points="347,325 323,325 313,395 355,395" fill="#2563eb" opacity="0.95"/><polyline points="335,320 320,420 310,455" fill="none" stroke="#f2b27e" stroke-width="12" stroke-linecap="round" stroke-linejoin="round"/><circle cx="310" cy="455" r="5" fill="#f2b27e"/><polyline points="335,395 290,460 265,515" fill="none" stroke="#d17f45" stroke-width="12" stroke-linecap="round" stroke-linejoin="round"/><ellipse cx="265" cy="515" rx="12" ry="6" fill="#111827"/><polyline points="343,395 340,445 327,495" fill="none" stroke="#b86d3d" stroke-width="10" stroke-linecap="round" stroke-linejoin="round"/><ellipse cx="327" cy="495" rx="12" ry="6" fill="#111827"/><line x1="425" y1="255" x2="310" y2="455" stroke="#475569" stroke-width="5"/><rect x="300" y="451" width="20" height="8" rx="4" fill="#111827"/><path d="M 421 260 Q 370 260 300 460" fill="none" stroke="#2563eb" stroke-width="7" marker-end="url(#arrow)" opacity="0.85"/><line x1="725" y1="520" x2="1120" y2="520" stroke="#94a3b8" stroke-width="4" opacity="0.6"/>
    <g stroke="#475569" stroke-width="10" fill="none" stroke-linecap="round" stroke-linejoin="round">
      <line x1="990" y1="490" x2="990" y2="235"/>
      <line x1="990" y1="235" x2="1080" y2="235"/>
      <line x1="1080" y1="235" x2="1080" y2="490" opacity="0.35"/>
    </g>
    <rect x="1005" y="255" width="18" height="150" rx="7" fill="#334155" opacity="0.7"/>
    <rect x="999" y="410" width="30" height="34" rx="8" fill="#334155"/>
    <circle cx="890" cy="315" r="18" fill="#f2b27e" stroke="#8a5a32" stroke-width="2"/><polygon points="878,340 920,355 920,405 870,395" fill="#2563eb"/><polyline points="890,395 905,455 925,510" fill="none" stroke="#d17f45" stroke-width="12" stroke-linecap="round" stroke-linejoin="round"/><ellipse cx="925" cy="510" rx="12" ry="6" fill="#111827"/><polyline points="870,393 875,455 892,510" fill="none" stroke="#b86d3d" stroke-width="10" stroke-linecap="round" stroke-linejoin="round"/><ellipse cx="892" cy="510" rx="12" ry="6" fill="#111827"/><polyline points="905,345 945,300 965,275" fill="none" stroke="#f2b27e" stroke-width="12" stroke-linecap="round" stroke-linejoin="round"/><line x1="995" y1="255" x2="965" y2="275" stroke="#475569" stroke-width="5"/><rect x="955" y="271" width="20" height="8" rx="4" fill="#111827"/><path d="M 991 260 Q 940 260 955 280" fill="none" stroke="#2563eb" stroke-width="7" marker-end="url(#arrow)" opacity="0.85"/></svg>