<svg xmlns="http://www.w3.org/2000/svg" width="1200" height="700" viewBox="0 0 1200 700">
<defs>
      <linearGradient id="g" x1="0" y1="0" x2="1" y2="1">
        <stop offset="0%" stop-color="#fee2e2"/><stop offset="100%" stop-color="#fecaca"/>
      </linearGradient>
      <filter id="shadow" x="-20%" y="-20%" width="140%" height="140%">
        <feDropShadow dx="0" dy="6" stdDeviation="10" flood-color="#0f172a" flood-opacity="0.12"/>
      </filter>
      <marker id="arrow" markerWidth="10" markerHeight="10" refX="8" refY="5" orient="auto-start-reverse">
        <path d="M0,0 L10,5 L0,10 z" fill="#2563eb"/>
      </marker>
    </defs>
    <rect width="100%" height="100%" fill="url(#g)"/>
    <rect x="0" y="0" width="100%" height="100%" fill="#ffffff" opacity="0.55"/>
    <rect x="40" y="40" width="1120" height="620" rx="30" fill="#ffffff" opacity="0.65"/>
    
    <g>
      <text x="80" y="110" font-family="Arial, Helvetica, sans-serif" font-size="28" font-weight="700" fill="#7c3aed">TRÍCEPS</text>
      <text x="80" y="155" font-family="Arial, Helvetica, sans-serif" font-size="50" font-weight="900" fill="#0f172a">Extensión en polea alta</text>
      <text x="80" y="192" font-family="Arial, Helvetica, sans-serif" font-size="20" fill="#475569">Posición inicial y final del movimiento</text>
    </g>
    <rect x="80" y="220" width="470" height="360" rx="28" fill="#ffffff" filter="url(#shadow)"/><rect x="650" y="220" width="470" height="360" rx="28" fill="#ffffff" filter="url(#shadow)"/><text x="280" y="255" font-family="Arial" font-size="18" font-weight="700" fill="#64748b">Inicio</text><text x="845" y="255" font-family="Arial" font-size="18" font-weight="700" fill="#64748b">Final</text><line x1="160" y1="520" x2="540" y2="520" stroke="#94a3b8" stroke-width="4" opacity="0.6"/>
    <g stroke="#475569" stroke-width="10" fill="none" stroke-linecap="round" stroke-linejoin="round">
      <line x1="420" y1="490" x2="420" y2="230"/>
      <line x1="420" y1="230" x2="510" y2="230"/>
      <line x1="510" y1="230" x2="510" y2="490" opacity="0.35"/>
    </g>
    <rect x="435" y="250" width="18" height="150" rx="7" fill="#334155" opacity="0.7"/>
    <rect x="429" y="405" width="30" height="34" rx="8" fill="#334155"/>
    <circle cx="330" cy="295" r="18" fill="#f2b27e" stroke="#8a5a32" stroke-width="2"/><polygon points="318,320 342,320 352,390 310,390" fill="#2563eb" opacity="0.95"/><polyline points="330,315 345,430 365,480" fill="none" stroke="#f2b27e" stroke-width="12" stroke-linecap="round" stroke-linejoin="round"/><circle cx="365" cy="480" r="5" fill="#f2b27e"/><polyline points="330,390 375,450 395,505" fill="none" stroke="#d17f45" stroke-width="12" stroke-linecap="round" stroke-linejoin="round"/><ellipse cx="395" cy="505" rx="12" ry="6" fill="#111827"/><polyline points="322,390 325,440 338,490" fill="none" stroke="#b86d3d" stroke-width="10" stroke-linecap="round" stroke-linejoin="round"/><ellipse cx="338" cy="490" rx="12" ry="6" fill="#111827"/><line x1="430" y1="260" x2="365" y2="480" stroke="#475569" stroke-width="5"/><rect x="355" y="476" width="20" height="8" rx="4" fill="#111827"/><rect x="325" y="476" width="20" height="8" rx="4" fill="#111827"/><path d="M 430 260 Q 395 320 365 465" fill="none" stroke="#2563eb" stroke-width="7" marker-end="url(#arrow)" opacity="0.85"/><line x1="730" y1="520" x2="1110" y2="520" stroke="#94a3b8" stroke-width="4" opacity="0.6"/>
    <g stroke="#475569" stroke-width="10" fill="none" stroke-linecap="round" stroke-linejoin="round">
      <line x1="990" y1="490" x2="990" y2="230"/>
      <line x1="990" y1="230" x2="1080" y2="230"/>
      <line x1="1080" y1="230" x2="1080" y2="490" opacity="0.35"/>
    </g>
    <rect x="1005" y="250" width="18" height="150" rx="7" fill="#334155" opacity="0.7"/>
    <rect x="999" y="405" width="30" height="34" rx="8" fill="#334155"/>
    <circle cx="900" cy="295" r="18" fill="#f2b27e" stroke="#8a5a32" stroke-width="2"/><polygon points="888,320 912,320 922,390 880,390" fill="#2563eb" opacity="0.95"/><polyline points="900,315 925,410 960,530" fill="none" stroke="#f2b27e" stroke-width="12" stroke-linecap="round" stroke-linejoin="round"/><circle cx="960" cy="530" r="5" fill="#f2b27e"/><polyline points="900,390 945,450 965,505" fill="none" stroke="#d17f45" stroke-width="12" stroke-linecap="round" stroke-linejoin="round"/><ellipse cx="965" cy="505" rx="12" ry="6" fill="#111827"/><polyline points="892,390 895,440 908,490" fill="none" stroke="#b86d3d" stroke-width="10" stroke-linecap="round" stroke-linejoin="round"/><ellipse cx="908" cy="490" rx="12" ry="6" fill="#111827"/><line x1="1000" y1="260" x2="935" y2="530" stroke="#475569" stroke-width="5"/><rect x="925" y="526" width="20" height="8" rx="4" fill="#111827"/><path d="M 1000 260 Q 965 320 935 515" fill="none" stroke="#2563eb" stroke-width="7" marker-end="url(#arrow)" opacity="0.85"/></svg>