<svg xmlns="http://www.w3.org/2000/svg" width="1200" height="700" viewBox="0 0 1200 700">
<defs>
      <linearGradient id="g" x1="0" y1="0" x2="1" y2="1">
        <stop offset="0%" stop-color="#dcfce7"/><stop offset="100%" stop-color="#dbeafe"/>
      </linearGradient>
      <filter id="shadow" x="-20%" y="-20%" width="140%" height="140%">
        <feDropShadow dx="0" dy="6" stdDeviation="10" flood-color="#0f172a" flood-opacity="0.12"/>
      </filter>
      <marker id="arrow" markerWidth="10" markerHeight="10" refX="8" refY="5" orient="auto-start-reverse">
        <path d="M0,0 L10,5 L0,10 z" fill="#2563eb"/>
      </marker>
    </defs>
    <rect width="100%" height="100%" fill="url(#g)"/>
    <rect x="0" y="0" width="100%" height="100%" fill="#ffffff" opacity="0.55"/>
    <rect x="40" y="40" width="1120" height="620" rx="30" fill="#ffffff" opacity="0.65"/>
    
    <g>
      <text x="80" y="110" font-family="Arial, Helvetica, sans-serif" font-size="28" font-weight="700" fill="#7c3aed">ISQUIOS</text>
      <text x="80" y="155" font-family="Arial, Helvetica, sans-serif" font-size="50" font-weight="900" fill="#0f172a">Bisagra de cadera en polea baja</text>
      <text x="80" y="192" font-family="Arial, Helvetica, sans-serif" font-size="20" fill="#475569">Posición inicial y final del movimiento</text>
    </g>
    <rect x="80" y="220" width="470" height="360" rx="28" fill="#ffffff" filter="url(#shadow)"/><rect x="650" y="220" width="470" height="360" rx="28" fill="#ffffff" filter="url(#shadow)"/><text x="280" y="255" font-family="Arial" font-size="18" font-weight="700" fill="#64748b">Inicio</text><text x="845" y="255" font-family="Arial" font-size="18" font-weight="700" fill="#64748b">Final</text><line x1="155" y1="520" x2="550" y2="520" stroke="#94a3b8" stroke-width="4" opacity="0.6"/>
    <g stroke="#475569" stroke-width="10" fill="none" stroke-linecap="round" stroke-linejoin="round">
      <line x1="175" y1="500" x2="175" y2="260"/>
      <line x1="175" y1="260" x2="295" y2="260"/>
      <line x1="295" y1="260" x2="295" y2="500" opacity="0.35"/>
    </g>
    <rect x="270" y="280" width="18" height="150" rx="7" fill="#334155" opacity="0.7"/>
    <rect x="264" y="435" width="30" height="34" rx="8" fill="#334155"/>
    <circle cx="335" cy="315" r="18" fill="#f2b27e" stroke="#8a5a32" stroke-width="2"/><polygon points="210,345 255,365 275,430 230,412" fill="#2563eb" transform="translate(0,0)"/><polyline points="350,405 375,460 400,512" fill="none" stroke="#d17f45" stroke-width="12" stroke-linecap="round" stroke-linejoin="round"/><ellipse cx="400" cy="512" rx="12" ry="6" fill="#111827"/><polyline points="327,405 353,455 375,512" fill="none" stroke="#b86d3d" stroke-width="10" stroke-linecap="round" stroke-linejoin="round"/><ellipse cx="375" cy="512" rx="12" ry="6" fill="#111827"/><polyline points="350,345 380,395" fill="none" stroke="#f2b27e" stroke-width="12" stroke-linecap="round" stroke-linejoin="round"/><line x1="295" y1="475" x2="380" y2="398" stroke="#475569" stroke-width="5"/><rect x="370" y="394" width="20" height="8" rx="4" fill="#111827"/><line x1="315" y1="470" x2="375" y2="393" stroke="#2563eb" stroke-width="7" marker-end="url(#arrow)" opacity="0.85"/><line x1="725" y1="520" x2="1120" y2="520" stroke="#94a3b8" stroke-width="4" opacity="0.6"/>
    <g stroke="#475569" stroke-width="10" fill="none" stroke-linecap="round" stroke-linejoin="round">
      <line x1="745" y1="500" x2="745" y2="260"/>
      <line x1="745" y1="260" x2="865" y2="260"/>
      <line x1="865" y1="260" x2="865" y2="500" opacity="0.35"/>
    </g>
    <rect x="840" y="280" width="18" height="150" rx="7" fill="#334155" opacity="0.7"/>
    <rect x="834" y="435" width="30" height="34" rx="8" fill="#334155"/>
    <circle cx="925" cy="295" r="18" fill="#f2b27e" stroke="#8a5a32" stroke-width="2"/><polygon points="913,320 937,320 947,390 905,390" fill="#2563eb" opacity="0.95"/><polyline points="925,315 965,430 995,460" fill="none" stroke="#f2b27e" stroke-width="12" stroke-linecap="round" stroke-linejoin="round"/><circle cx="995" cy="460" r="5" fill="#f2b27e"/><polyline points="925,390 945,455 960,505" fill="none" stroke="#d17f45" stroke-width="12" stroke-linecap="round" stroke-linejoin="round"/><ellipse cx="960" cy="505" rx="12" ry="6" fill="#111827"/><polyline points="917,390 920,440 933,490" fill="none" stroke="#b86d3d" stroke-width="10" stroke-linecap="round" stroke-linejoin="round"/><ellipse cx="933" cy="490" rx="12" ry="6" fill="#111827"/><line x1="865" y1="475" x2="995" y2="430" stroke="#475569" stroke-width="5"/><rect x="985" y="426" width="20" height="8" rx="4" fill="#111827"/><line x1="885" y1="470" x2="990" y2="425" stroke="#2563eb" stroke-width="7" marker-end="url(#arrow)" opacity="0.85"/></svg>